<svg xmlns="http://www.w3.org/2000/svg" version="1.1" xmlns:xlink="http://www.w3.org/1999/xlink" xmlns:svgjs="http://svgjs.dev/svgjs" width="1000" height="623" viewBox="0 0 1000 623"><g transform="matrix(1,0,0,1,-0.6060606060606233,0.2522267206477409)"><svg viewBox="0 0 396 247" data-background-color="#1b4571" preserveAspectRatio="xMidYMid meet" height="623" width="1000" xmlns="http://www.w3.org/2000/svg" xmlns:xlink="http://www.w3.org/1999/xlink"><g id="tight-bounds" transform="matrix(1,0,0,1,0.2400000000000091,-0.09999999999999432)"><svg viewBox="0 0 395.52 247.2" height="247.2" width="395.52"><g><svg></svg></g><g><svg viewBox="0 0 395.52 247.2" height="247.2" width="395.52"><g transform="matrix(1,0,0,1,75.54432,104.86081032952252)"><svg viewBox="0 0 244.43135999999998 37.478379340954945" height="37.478379340954945" width="244.43135999999998"><g><svg viewBox="0 0 244.43135999999998 37.478379340954945" height="37.478379340954945" width="244.43135999999998"><g><svg viewBox="0 0 244.43135999999998 37.478379340954945" height="37.478379340954945" width="244.43135999999998"><g><svg viewBox="0 0 244.43135999999998 37.478379340954945" height="37.478379340954945" width="244.43135999999998"><g id="textblocktransform"><svg viewBox="0 0 244.43135999999998 37.478379340954945" height="37.478379340954945" width="244.43135999999998" id="textblock"><g><svg viewBox="0 0 244.43135999999998 37.478379340954945" height="37.478379340954945" width="244.43135999999998"><g transform="matrix(1,0,0,1,0,0)"><svg width="244.43135999999998" viewBox="1 -43.099998474121094 297.3800048828125 45.599998474121094" height="37.478379340954945" data-palette-color="#ffffff"><path d="M43.4-32Q43.4-27.75 40.4-24.68 37.4-21.6 31.65-20.25L31.65-20.25Q34.75-19.4 36.35-17.48 37.95-15.55 37.95-13.05L37.95-13.05Q37.95-9.1 35.48-6.2 33-3.3 28.25-1.73 23.5-0.15 16.8-0.15L16.8-0.15Q14.3-0.15 12.8-0.3L12.8-0.3Q12.75 1.1 11.6 1.8 10.45 2.5 8.65 2.5L8.65 2.5Q6.85 2.5 6.18 1.7 5.5 0.9 5.6-0.65L5.6-0.65Q6.05-7.65 7.35-15.33 8.65-23 10.65-30.15L10.65-30.15Q11-31.4 12.05-31.9 13.1-32.4 14.8-32.4L14.8-32.4Q17.85-32.4 17.85-30.7L17.85-30.7Q17.85-30 17.55-29.1L17.55-29.1Q16.25-25.2 14.95-18.53 13.65-11.85 13.1-5.8L13.1-5.8Q15.5-5.6 17-5.6L17-5.6Q24-5.6 27.28-7.63 30.55-9.65 30.55-12.8L30.55-12.8Q30.55-15 28.68-16.5 26.8-18 22.4-18.15L22.4-18.15Q21.4-18.2 21-18.65 20.6-19.1 20.6-20.1L20.6-20.1Q20.6-21.55 21.2-22.45 21.8-23.35 23.4-23.4L23.4-23.4Q26.95-23.5 29.83-24.45 32.7-25.4 34.35-27.13 36-28.85 36-31.15L36-31.15Q36-34.05 33.15-35.73 30.3-37.4 24.4-37.4L24.4-37.4Q19.05-37.4 14.05-36.02 9.05-34.65 5.55-32.55L5.55-32.55Q3.95-31.6 2.85-31.6L2.85-31.6Q1.95-31.6 1.48-32.23 1-32.85 1-33.8L1-33.8Q1-35.05 1.53-35.95 2.05-36.85 4.05-38L4.05-38Q8.25-40.4 13.9-41.75 19.55-43.1 25.45-43.1L25.45-43.1Q34.5-43.1 38.95-40.05 43.4-37 43.4-32L43.4-32ZM47.9 0.25Q44.8 0.25 42.95-2 41.1-4.25 41.1-7.9L41.1-7.9Q41.1-11.9 42.95-15.48 44.8-19.05 47.87-21.23 50.95-23.4 54.4-23.4L54.4-23.4Q55.5-23.4 55.87-22.98 56.25-22.55 56.5-21.45L56.5-21.45Q57.55-21.65 58.7-21.65L58.7-21.65Q61.15-21.65 61.15-19.9L61.15-19.9Q61.15-18.85 60.4-14.9L60.4-14.9Q59.25-9.15 59.25-6.9L59.25-6.9Q59.25-6.15 59.62-5.7 60-5.25 60.6-5.25L60.6-5.25Q61.55-5.25 62.9-6.48 64.25-7.7 66.55-10.45L66.55-10.45Q67.15-11.15 67.9-11.15L67.9-11.15Q68.55-11.15 68.92-10.55 69.3-9.95 69.3-8.9L69.3-8.9Q69.3-6.9 68.35-5.8L68.35-5.8Q66.3-3.25 64-1.5 61.7 0.25 59.55 0.25L59.55 0.25Q57.9 0.25 56.52-0.88 55.15-2 54.45-3.95L54.45-3.95Q51.85 0.25 47.9 0.25L47.9 0.25ZM49.7-4.8Q50.8-4.8 51.8-6.1 52.8-7.4 53.25-9.55L53.25-9.55 55.1-18.75Q53-18.7 51.22-17.18 49.45-15.65 48.4-13.15 47.35-10.65 47.35-7.85L47.35-7.85Q47.35-6.3 47.97-5.55 48.6-4.8 49.7-4.8L49.7-4.8ZM71.8-26.6Q69.7-26.6 68.65-27.58 67.59-28.55 67.59-30.3L67.59-30.3Q67.59-32.05 68.97-33.23 70.34-34.4 72.4-34.4L72.4-34.4Q74.25-34.4 75.4-33.5 76.55-32.6 76.55-30.95L76.55-30.95Q76.55-28.95 75.25-27.78 73.95-26.6 71.8-26.6L71.8-26.6ZM71.4 0.25Q68.15 0.25 66.67-2.05 65.2-4.35 65.2-8.15L65.2-8.15Q65.2-10.4 65.77-13.93 66.34-17.45 67.25-20.5L67.25-20.5Q67.7-22.1 68.45-22.7 69.2-23.3 70.84-23.3L70.84-23.3Q73.4-23.3 73.4-21.6L73.4-21.6Q73.4-20.35 72.45-15.8L72.45-15.8Q71.25-10.3 71.25-8.35L71.25-8.35Q71.25-6.85 71.65-6.05 72.05-5.25 73-5.25L73-5.25Q73.9-5.25 75.25-6.5 76.59-7.75 78.84-10.45L78.84-10.45Q79.45-11.15 80.2-11.15L80.2-11.15Q80.84-11.15 81.22-10.55 81.59-9.95 81.59-8.9L81.59-8.9Q81.59-6.9 80.65-5.8L80.65-5.8Q75.7 0.25 71.4 0.25L71.4 0.25ZM81.09 0.25Q79.19 0.25 78.42-1.75 77.64-3.75 77.64-8.15L77.64-8.15Q77.64-14.65 79.49-20.5L79.49-20.5Q79.94-21.95 80.97-22.63 81.99-23.3 83.84-23.3L83.84-23.3Q84.84-23.3 85.24-23.05 85.64-22.8 85.64-22.1L85.64-22.1Q85.64-21.3 84.89-18.5L84.89-18.5Q84.39-16.5 84.09-15.03 83.79-13.55 83.59-11.35L83.59-11.35Q84.94-15.25 86.82-17.95 88.69-20.65 90.67-21.98 92.64-23.3 94.39-23.3L94.39-23.3Q96.14-23.3 96.87-22.5 97.59-21.7 97.59-20.05L97.59-20.05Q97.59-18.45 96.64-14.25L96.64-14.25Q96.24-12.45 96.09-11.55L96.09-11.55Q98.59-17.7 101.64-20.5 104.69-23.3 107.34-23.3L107.34-23.3Q110.59-23.3 110.59-20.05L110.59-20.05Q110.59-18.1 109.49-13L109.49-13Q108.54-8.65 108.54-7.25L108.54-7.25Q108.54-5.25 109.99-5.25L109.99-5.25Q110.99-5.25 112.37-6.48 113.74-7.7 116.04-10.45L116.04-10.45Q116.64-11.15 117.39-11.15L117.39-11.15Q118.04-11.15 118.42-10.55 118.79-9.95 118.79-8.9L118.79-8.9Q118.79-6.9 117.84-5.8L117.84-5.8Q115.69-3.15 113.22-1.45 110.74 0.25 107.59 0.25L107.59 0.25Q105.04 0.25 103.74-1.23 102.44-2.7 102.44-5.5L102.44-5.5Q102.44-6.9 103.14-10.5L103.14-10.5Q103.79-13.65 103.79-14.85L103.79-14.85Q103.79-15.65 103.24-15.65L103.24-15.65Q102.59-15.65 101.39-13.98 100.19-12.3 98.99-9.55 97.79-6.8 97.04-3.75L97.04-3.75Q96.49-1.35 95.77-0.55 95.04 0.25 93.44 0.25L93.44 0.25Q91.79 0.25 90.97-1.33 90.14-2.9 90.14-5.15L90.14-5.15Q90.14-7.05 90.64-10.65L90.64-10.65Q91.04-13.85 91.04-14.85L91.04-14.85Q91.04-15.65 90.49-15.65L90.49-15.65Q89.74-15.65 88.59-13.85 87.44-12.05 86.37-9.25 85.29-6.45 84.64-3.75L84.64-3.75Q84.09-1.4 83.37-0.58 82.64 0.25 81.09 0.25L81.09 0.25ZM138.69-11.15Q139.34-11.15 139.72-10.55 140.09-9.95 140.09-8.9L140.09-8.9Q140.09-7.05 139.14-5.8L139.14-5.8Q136.79-2.75 133.32-1 129.84 0.75 125.49 0.75L125.49 0.75Q122.09 0.75 119.59-0.28 117.09-1.3 115.77-3.08 114.44-4.85 114.44-7.05L114.44-7.05Q114.44-10.35 117.09-12.9 119.74-15.45 124.69-17.8L124.69-17.8 116.49-17.6Q115.39-17.55 114.82-18.38 114.24-19.2 114.24-20.35L114.24-20.35Q114.24-21.55 114.82-22.48 115.39-23.4 116.39-23.4L116.39-23.4Q118.69-23.4 122.54-23.05L122.54-23.05Q123.34-23 125.47-22.85 127.59-22.7 129.04-22.7L129.04-22.7Q129.54-22.7 130.94-23.1L130.94-23.1Q131.19-23.15 131.92-23.35 132.64-23.55 133.14-23.55L133.14-23.55Q133.94-23.55 134.47-22.85 134.99-22.15 134.99-20.7L134.99-20.7Q134.99-19.1 134.24-18.2 133.49-17.3 131.89-16.6L131.89-16.6Q127.34-14.65 124.34-12.43 121.34-10.2 121.34-8L121.34-8Q121.34-6.6 122.64-5.7 123.94-4.8 126.49-4.8L126.49-4.8Q129.29-4.8 132.17-6.2 135.04-7.6 137.34-10.45L137.34-10.45Q137.94-11.15 138.69-11.15L138.69-11.15ZM190.24-32Q190.24-27.75 187.24-24.68 184.24-21.6 178.49-20.25L178.49-20.25Q181.59-19.4 183.19-17.48 184.79-15.55 184.79-13.05L184.79-13.05Q184.79-9.1 182.31-6.2 179.84-3.3 175.09-1.73 170.34-0.15 163.64-0.15L163.64-0.15Q161.14-0.15 159.64-0.3L159.64-0.3Q159.59 1.1 158.44 1.8 157.29 2.5 155.49 2.5L155.49 2.5Q153.69 2.5 153.01 1.7 152.34 0.9 152.44-0.65L152.44-0.65Q152.89-7.65 154.19-15.33 155.49-23 157.49-30.15L157.49-30.15Q157.84-31.4 158.89-31.9 159.94-32.4 161.64-32.4L161.64-32.4Q164.69-32.4 164.69-30.7L164.69-30.7Q164.69-30 164.39-29.1L164.39-29.1Q163.09-25.2 161.79-18.53 160.49-11.85 159.94-5.8L159.94-5.8Q162.34-5.6 163.84-5.6L163.84-5.6Q170.84-5.6 174.11-7.63 177.39-9.65 177.39-12.8L177.39-12.8Q177.39-15 175.51-16.5 173.64-18 169.24-18.15L169.24-18.15Q168.24-18.2 167.84-18.65 167.44-19.1 167.44-20.1L167.44-20.1Q167.44-21.55 168.04-22.45 168.64-23.35 170.24-23.4L170.24-23.4Q173.79-23.5 176.66-24.45 179.54-25.4 181.19-27.13 182.84-28.85 182.84-31.15L182.84-31.15Q182.84-34.05 179.99-35.73 177.14-37.4 171.24-37.4L171.24-37.4Q165.89-37.4 160.89-36.02 155.89-34.65 152.39-32.55L152.39-32.55Q150.79-31.6 149.69-31.6L149.69-31.6Q148.79-31.6 148.31-32.23 147.84-32.85 147.84-33.8L147.84-33.8Q147.84-35.05 148.36-35.95 148.89-36.85 150.89-38L150.89-38Q155.09-40.4 160.74-41.75 166.39-43.1 172.29-43.1L172.29-43.1Q181.34-43.1 185.79-40.05 190.24-37 190.24-32L190.24-32ZM193.13 0.25Q191.23 0.25 190.46-1.75 189.68-3.75 189.68-8.15L189.68-8.15Q189.68-14.65 191.53-20.5L191.53-20.5Q191.98-21.95 193.01-22.63 194.03-23.3 195.88-23.3L195.88-23.3Q196.88-23.3 197.28-23.05 197.68-22.8 197.68-22.1L197.68-22.1Q197.68-21.3 196.93-18.5L196.93-18.5Q196.43-16.5 196.13-15 195.83-13.5 195.63-11.3L195.63-11.3Q197.28-15.6 199.33-18.3 201.38-21 203.36-22.15 205.33-23.3 206.98-23.3L206.98-23.3Q210.23-23.3 210.23-20.05L210.23-20.05Q210.23-19.4 209.78-16.9L209.78-16.9Q209.38-14.9 209.38-14.4L209.38-14.4Q209.38-12.65 210.63-12.65L210.63-12.65Q212.03-12.65 214.23-14.85L214.23-14.85Q214.88-15.5 215.58-15.5L215.58-15.5Q216.23-15.5 216.61-14.93 216.98-14.35 216.98-13.4L216.98-13.4Q216.98-11.55 215.98-10.5L215.98-10.5Q214.58-9.05 212.71-8.03 210.83-7 208.73-7L208.73-7Q206.08-7 204.71-8.35 203.33-9.7 203.33-12L203.33-12Q203.33-12.75 203.48-13.5L203.48-13.5Q203.58-14.5 203.58-14.85L203.58-14.85Q203.58-15.65 203.03-15.65L203.03-15.65Q202.28-15.65 201.06-13.98 199.83-12.3 198.63-9.55 197.43-6.8 196.68-3.75L196.68-3.75Q196.13-1.4 195.41-0.58 194.68 0.25 193.13 0.25L193.13 0.25ZM218.48 0.25Q215.38 0.25 213.53-2 211.68-4.25 211.68-7.9L211.68-7.9Q211.68-11.9 213.53-15.48 215.38-19.05 218.46-21.23 221.53-23.4 224.98-23.4L224.98-23.4Q226.08-23.4 226.46-22.98 226.83-22.55 227.08-21.45L227.08-21.45Q228.13-21.65 229.28-21.65L229.28-21.65Q231.73-21.65 231.73-19.9L231.73-19.9Q231.73-18.85 230.98-14.9L230.98-14.9Q229.83-9.15 229.83-6.9L229.83-6.9Q229.83-6.15 230.21-5.7 230.58-5.25 231.18-5.25L231.18-5.25Q232.13-5.25 233.48-6.48 234.83-7.7 237.13-10.45L237.13-10.45Q237.73-11.15 238.48-11.15L238.48-11.15Q239.13-11.15 239.51-10.55 239.88-9.95 239.88-8.9L239.88-8.9Q239.88-6.9 238.93-5.8L238.93-5.8Q236.88-3.25 234.58-1.5 232.28 0.25 230.13 0.25L230.13 0.25Q228.48 0.25 227.11-0.88 225.73-2 225.03-3.95L225.03-3.95Q222.43 0.25 218.48 0.25L218.48 0.25ZM220.28-4.8Q221.38-4.8 222.38-6.1 223.38-7.4 223.83-9.55L223.83-9.55 225.68-18.75Q223.58-18.7 221.81-17.18 220.03-15.65 218.98-13.15 217.93-10.65 217.93-7.85L217.93-7.85Q217.93-6.3 218.56-5.55 219.18-4.8 220.28-4.8L220.28-4.8ZM239.38 0.25Q237.48 0.25 236.7-1.75 235.93-3.75 235.93-8.15L235.93-8.15Q235.93-14.65 237.78-20.5L237.78-20.5Q238.23-21.95 239.25-22.63 240.28-23.3 242.13-23.3L242.13-23.3Q243.13-23.3 243.53-23.05 243.93-22.8 243.93-22.1L243.93-22.1Q243.93-21.3 243.18-18.5L243.18-18.5Q242.68-16.5 242.38-15.03 242.08-13.55 241.88-11.35L241.88-11.35Q243.23-15.25 245.1-17.95 246.98-20.65 248.95-21.98 250.93-23.3 252.68-23.3L252.68-23.3Q254.43-23.3 255.15-22.5 255.88-21.7 255.88-20.05L255.88-20.05Q255.88-18.45 254.93-14.25L254.93-14.25Q254.53-12.45 254.38-11.55L254.38-11.55Q256.88-17.7 259.93-20.5 262.98-23.3 265.63-23.3L265.63-23.3Q268.88-23.3 268.88-20.05L268.88-20.05Q268.88-18.1 267.78-13L267.78-13Q266.83-8.65 266.83-7.25L266.83-7.25Q266.83-5.25 268.28-5.25L268.28-5.25Q269.28-5.25 270.65-6.48 272.03-7.7 274.33-10.45L274.33-10.45Q274.93-11.15 275.68-11.15L275.68-11.15Q276.33-11.15 276.7-10.55 277.08-9.95 277.08-8.9L277.08-8.9Q277.08-6.9 276.13-5.8L276.13-5.8Q273.98-3.15 271.5-1.45 269.03 0.25 265.88 0.25L265.88 0.25Q263.33 0.25 262.03-1.23 260.73-2.7 260.73-5.5L260.73-5.5Q260.73-6.9 261.43-10.5L261.43-10.5Q262.08-13.65 262.08-14.85L262.08-14.85Q262.08-15.65 261.53-15.65L261.53-15.65Q260.88-15.65 259.68-13.98 258.48-12.3 257.28-9.55 256.08-6.8 255.33-3.75L255.33-3.75Q254.78-1.35 254.05-0.55 253.33 0.25 251.73 0.25L251.73 0.25Q250.08 0.25 249.25-1.33 248.43-2.9 248.43-5.15L248.43-5.15Q248.43-7.05 248.93-10.65L248.93-10.65Q249.33-13.85 249.33-14.85L249.33-14.85Q249.33-15.65 248.78-15.65L248.78-15.65Q248.03-15.65 246.88-13.85 245.73-12.05 244.65-9.25 243.58-6.45 242.93-3.75L242.93-3.75Q242.38-1.4 241.65-0.58 240.93 0.25 239.38 0.25L239.38 0.25ZM296.98-11.15Q297.63-11.15 298-10.55 298.38-9.95 298.38-8.9L298.38-8.9Q298.38-7.05 297.43-5.8L297.43-5.8Q295.08-2.75 291.6-1 288.13 0.75 283.78 0.75L283.78 0.75Q280.38 0.75 277.88-0.28 275.38-1.3 274.05-3.08 272.73-4.85 272.73-7.05L272.73-7.05Q272.73-10.35 275.38-12.9 278.03-15.45 282.98-17.8L282.98-17.8 274.78-17.6Q273.68-17.55 273.1-18.38 272.53-19.2 272.53-20.35L272.53-20.35Q272.53-21.55 273.1-22.48 273.68-23.4 274.68-23.4L274.68-23.4Q276.98-23.4 280.83-23.05L280.83-23.05Q281.63-23 283.75-22.85 285.88-22.7 287.33-22.7L287.33-22.7Q287.83-22.7 289.23-23.1L289.23-23.1Q289.48-23.15 290.2-23.35 290.93-23.55 291.43-23.55L291.43-23.55Q292.23-23.55 292.75-22.85 293.28-22.15 293.28-20.7L293.28-20.7Q293.28-19.1 292.53-18.2 291.78-17.3 290.18-16.6L290.18-16.6Q285.63-14.65 282.63-12.43 279.63-10.2 279.63-8L279.63-8Q279.63-6.6 280.93-5.7 282.23-4.8 284.78-4.8L284.78-4.8Q287.58-4.8 290.45-6.2 293.33-7.6 295.63-10.45L295.63-10.45Q296.23-11.15 296.98-11.15L296.98-11.15Z" opacity="1" transform="matrix(1,0,0,1,0,0)" fill="#ffffff" class="undefined-text-0" data-fill-palette-color="primary" id="text-0"></path></svg></g></svg></g></svg></g></svg></g></svg></g></svg></g></svg></g><g><path d="M245.816 0c68.262 0 123.6 55.338 123.6 123.6 0 68.262-55.338 123.6-123.6 123.6-60.345 0-110.59-43.246-121.433-100.437h1.72c10.82 56.252 60.303 98.747 119.713 98.747 67.329 0 121.91-54.581 121.91-121.91 0-67.329-54.581-121.91-121.91-121.91-59.409 0-108.893 42.495-119.713 98.747h-1.72c10.843-57.191 61.088-100.437 121.433-100.437z" fill="#ffffff" stroke="transparent" data-fill-palette-color="tertiary"></path></g></svg></g><defs></defs></svg><rect width="395.52" height="247.2" fill="none" stroke="none" visibility="hidden"></rect></g></svg></g></svg>